<svg xmlns="http://www.w3.org/2000/svg" xmlns:xlink="http://www.w3.org/1999/xlink" width="122.157" height="73.404" viewBox="0 0 122.157 73.404"><defs><style>.a,.b{fill:#fff;stroke:rgba(0,0,0,0);stroke-miterlimit:10;}.a{opacity:0;}.c{filter:url(#c);}.d{filter:url(#a);}</style><filter id="a" x="0" y="0" width="122.157" height="73.404" filterUnits="userSpaceOnUse"><feOffset input="SourceAlpha"/><feGaussianBlur stdDeviation="7.5" result="b"/><feFlood flood-color="#fff" flood-opacity="0.51"/><feComposite operator="in" in2="b"/><feComposite in="SourceGraphic"/></filter><filter id="c" x="7.5" y="7.5" width="107.157" height="58.404" filterUnits="userSpaceOnUse"><feOffset input="SourceAlpha"/><feGaussianBlur stdDeviation="5" result="d"/><feFlood flood-color="#fff" flood-opacity="0.259"/><feComposite operator="in" in2="d"/><feComposite in="SourceGraphic"/></filter></defs><g transform="translate(23.11 23)"><g class="d" transform="matrix(1, 0, 0, 1, -23.11, -23)"><path class="a" d="M-642.953,903.4l2.12-10.655L-642.56,876h6.281l.207,7.753,3.161-7.753h6.65l-8.613,17.315-2.007,10.089Zm-15.935,0L-654.5,881.5h-10.9l-1.088,5.345h5.695l-1.106,5.5h-5.7l-2.2,11.064h-6.073l5.5-27.4h27.294l-1.106,5.5h-4.244l-4.393,21.906Zm-25.428,0,5.5-27.4h6.073l-5.5,27.4Zm-7.12,0-2.276-11.155-2.213,11.155H-702l5.5-27.4h4.93l2.225,11.092L-687.274,876h6.079l-5.5,27.4Z" transform="translate(725.11 -853)"/></g><g class="c" transform="matrix(1, 0, 0, 1, -23.11, -23)"><path class="b" d="M-642.953,903.4l2.12-10.655L-642.56,876h6.281l.207,7.753,3.161-7.753h6.65l-8.613,17.315-2.007,10.089Zm-15.935,0L-654.5,881.5h-10.9l-1.088,5.345h5.695l-1.106,5.5h-5.7l-2.2,11.064h-6.073l5.5-27.4h27.294l-1.106,5.5h-4.244l-4.393,21.906Zm-25.428,0,5.5-27.4h6.073l-5.5,27.4Zm-7.12,0-2.276-11.155-2.213,11.155H-702l5.5-27.4h4.93l2.225,11.092L-687.274,876h6.079l-5.5,27.4Z" transform="translate(725.11 -853)"/></g></g></svg>